<svg xmlns="http://www.w3.org/2000/svg" width="24" height="15" fill="none" viewBox="0 0 24 15">
  <g clip-path="url(#a)">
    <path fill="#E4E4E4" d="M21.718.5H2.039c-.069 0-.137.002-.205.003A3.219 3.219 0 0 0 1.39.54a1.58 1.58 0 0 0-.423.128 1.371 1.371 0 0 0-.623.575 1.31 1.31 0 0 0-.14.391 2.516 2.516 0 0 0-.038.411 8.575 8.575 0 0 0-.004.19V12.54a58.69 58.69 0 0 0 .004.414c.004.137.012.275.039.41a1.31 1.31 0 0 0 .401.725c.106.098.227.18.36.242.136.063.275.104.424.129.147.024.296.032.445.036l.205.002h19.92c.068 0 .136 0 .204-.002.149-.004.299-.012.446-.036.147-.024.29-.067.423-.13.268-.125.486-.327.622-.574a1.29 1.29 0 0 0 .14-.391c.026-.136.035-.274.039-.411l.003-.19V2.235l-.003-.189a2.516 2.516 0 0 0-.04-.41 1.303 1.303 0 0 0-.139-.392 1.373 1.373 0 0 0-.622-.575A1.593 1.593 0 0 0 22.61.54a3.207 3.207 0 0 0-.446-.037 11.084 11.084 0 0 0-.204-.002L21.718.5Z"/>
    <path fill="#fff" d="M21.718.967h.239c.064 0 .13.001.194.003.114.003.246.008.37.029.107.018.197.045.284.085a.883.883 0 0 1 .4.371c.044.08.074.162.093.262.022.113.028.236.031.341a23.196 23.196 0 0 1 .004.4v10.306l-.004.178a2.173 2.173 0 0 1-.031.342.858.858 0 0 1-.494.632 1.05 1.05 0 0 1-.282.085 2.81 2.81 0 0 1-.368.03l-.198.002H2.041l-.194-.002a2.795 2.795 0 0 1-.37-.03 1.05 1.05 0 0 1-.283-.085.906.906 0 0 1-.4-.37.867.867 0 0 1-.093-.263 2.112 2.112 0 0 1-.032-.34 8.054 8.054 0 0 1-.003-.18V2.237c0-.06.002-.12.003-.179.003-.105.01-.227.032-.342a.867.867 0 0 1 .261-.476.914.914 0 0 1 .232-.156c.09-.041.185-.07.284-.085a3.02 3.02 0 0 1 .37-.03L2.04.968h19.677Z"/>
    <path fill="#000" d="M6.385 5.226c.2-.232.337-.543.301-.862a1.336 1.336 0 0 0-.86.412c-.186.198-.351.523-.308.828.33.026.66-.153.867-.378Zm.297.437c-.479-.026-.886.251-1.115.251-.228 0-.579-.238-.958-.231-.493.006-.95.264-1.2.674-.515.819-.136 2.034.364 2.701.243.33.536.694.922.681.365-.013.508-.218.951-.218.443 0 .572.218.958.211.4-.006.65-.33.893-.66.28-.377.393-.74.4-.76-.007-.007-.771-.277-.779-1.09-.007-.68.601-1.004.63-1.024-.344-.469-.88-.522-1.066-.535m4.776-.921c1.04 0 1.766.663 1.766 1.628 0 .969-.74 1.635-1.792 1.635h-1.153v1.693h-.833V4.742h2.012ZM10.279 7.36h.956c.725 0 1.137-.36 1.137-.985s-.412-.983-1.134-.983h-.959V7.36Zm3.152 1.312c0-.635.524-1 1.49-1.054l1.038-.059v-.274c0-.402-.286-.622-.796-.622-.42 0-.725.2-.788.505h-.751c.022-.642.677-1.11 1.562-1.11.951 0 1.572.46 1.572 1.175v2.466h-.77v-.594h-.018c-.22.388-.703.632-1.227.632-.773 0-1.312-.426-1.312-1.065Zm2.528-.32v-.277l-.926.055c-.52.03-.792.209-.792.521 0 .303.283.499.725.499.565 0 .993-.334.993-.797Zm1.507 2.673v-.594c.052.006.178.013.245.013.368 0 .577-.144.703-.515l.074-.22-1.409-3.606h.87l.982 2.926h.019l.981-2.926h.848L19.318 9.89c-.335.87-.718 1.154-1.529 1.154-.063 0-.267-.007-.323-.02Z"/>
  </g>
  <defs>
    <clipPath id="a">
      <path fill="#fff" d="M0 .5h24v14H0z"/>
    </clipPath>
  </defs>
</svg>
